<svg id="Capa_1" enable-background="new 0 0 512 512" height="512" viewBox="0 0 512 512" width="512" xmlns="http://www.w3.org/2000/svg"><g><g><g><path d="m136.779 0-27.354 47.354-47.353 27.353v437.293h193.928l30-236.291-30-275.709z" fill="#fff5f5"/><path d="m256 0h193.928v512h-193.928z" fill="#dce6eb"/></g><path d="m136.779 0v74.707h-74.707z" fill="#dce6eb"/></g><g><g><g><path d="m333.403 352.707-17.986-24.01 38.78-29.052-38.78-29.052 17.986-24.01 60.162 45.069v15.986z" fill="#5a9771"/></g><g><path d="m178.597 352.707-60.162-45.069v-15.986l60.162-45.069 17.986 24.01-38.78 29.052 38.78 29.052z" fill="#77ca95"/></g><g><path d="m217.118 348.653 27.287 12.467 11.595-25.379 10-39.741-10-32.452z" fill="#77ca95"/><path d="m267.595 238.17-11.595 25.378v72.193l38.882-85.104z" fill="#5a9771"/></g></g></g></g></svg>